<svg width="437" height="1425" viewBox="0 0 437 1425" fill="none" xmlns="http://www.w3.org/2000/svg">
<path opacity="0.6" fill-rule="evenodd" clip-rule="evenodd" d="M1340.8 1315.06C1340.8 1315.06 1393.49 1356.41 826.661 1403.35C555.203 1425.83 216.521 1268.14 214.746 1037.27C213.609 889.449 395.056 672.923 508.084 487.108C587.148 357.129 605.636 224.31 620.084 216.608C712.317 167.438 899.85 213.425 972.084 225.108C1085.05 243.379 1253.5 524.455 1253.5 524.455L1340.8 1315.06Z" fill="#4CBAD8"/>
<path fill-rule="evenodd" clip-rule="evenodd" d="M1155.1 1141.67C1155.1 1141.67 1207.8 1183.02 640.961 1229.96C369.504 1252.44 30.8212 1094.75 29.0464 863.875C27.91 716.058 209.357 499.531 322.385 313.717C401.449 183.738 419.937 50.9193 434.385 43.2169C526.617 -5.95333 714.151 40.0336 786.385 51.717C899.346 69.9876 1067.8 351.064 1067.8 351.064L1155.1 1141.67Z" fill="#FAEC8C"/>
</svg>
